<svg height="512pt" viewBox="-31 0 512 512" width="512pt" xmlns="http://www.w3.org/2000/svg"><path d="m450 467v45h-450v-45c0-57.898438 47.101562-106 105-106h45l60 45h30l60-45h45c57.898438 0 105 48.101562 105 106zm0 0" fill="#ff7816"/><path d="m450 467v45h-225v-106h15l60-45h45c57.898438 0 105 48.101562 105 106zm0 0" fill="#dd3400"/><path d="m270 341.800781v34.199219c0 24.898438-20.097656 45-45 45s-45-20.101562-45-45v-34.199219zm0 0" fill="#ffbd86"/><path d="m225 341.800781h45v34.199219c0 24.898438-20.097656 45-45 45zm0 0" fill="#ea9b58"/><path d="m360 201.699219-38.402344 37.800781 37.800782-3.898438c-3 42.898438-25.796876 80.097657-59.398438 102.597657l-30-37.199219h-90l-30 37.199219c-33.601562-22.5-56.398438-59.699219-59.398438-102.597657l37.800782 3.898438-38.402344-37.800781v-51.699219c0-74.699219 60.300781-120 135-120s135 45.300781 135 120zm0 0" fill="#fed2a4"/><path d="m360 201.699219-38.402344 37.800781 37.800782-3.898438c-3 42.898438-25.796876 80.097657-59.398438 102.597657l-30-37.199219h-45v-271c74.699219 0 135 45.300781 135 120zm0 0" fill="#f6a96c"/><path d="m171.710938 242.582031-81.710938-40.855469v24.273438c0 3.246094.382812 6.390625.609375 9.574219l67.679687 33.84375zm0 0" fill="#6e6e6e"/><path d="m291.710938 269.417969 67.679687-33.84375c.226563-3.1875.609375-6.332031.609375-9.574219v-24.273438l-81.710938 40.855469zm0 0" fill="#444"/><path d="m300 241v97.199219c-21.597656 14.398437-47.101562 22.800781-75 22.800781s-53.402344-8.402344-75-22.800781v-97.199219zm0 0" fill="#6e6e6e"/><path d="m300 338.199219c-21.597656 14.398437-47.101562 22.800781-75 22.800781v-120h75zm0 0" fill="#444"/><path d="m225 0h-195v15c0 74.398438 60.601562 135 135 135h66.300781l23.699219-23.699219 23.699219 23.699219h81.300781v-15c0-74.402344-60.601562-135-135-135zm0 0" fill="#6e6e6e"/><path d="m231.300781 150h-6.300781v-150c74.398438 0 135 60.597656 135 135v15h-81.300781l-23.699219-23.699219zm0 0" fill="#444"/><path d="m300 361v15c0 41.398438-33.601562 75-75 75s-75-33.601562-75-75v-15h30v15c0 24.898438 20.097656 45 45 45s45-20.101562 45-45v-15zm0 0" fill="#ede9e8"/><path d="m300 361v15c0 41.398438-33.601562 75-75 75v-30c24.902344 0 45-20.101562 45-45v-15zm0 0" fill="#d2c5c2"/></svg>